<?xml version="1.0" encoding="UTF-8" standalone="no"?>
<!-- Created with Inkscape (http://www.inkscape.org/) -->

<svg
   xmlns:dc="http://purl.org/dc/elements/1.1/"
   xmlns:cc="http://creativecommons.org/ns#"
   xmlns:rdf="http://www.w3.org/1999/02/22-rdf-syntax-ns#"
   xmlns:svg="http://www.w3.org/2000/svg"
   xmlns="http://www.w3.org/2000/svg"
   xmlns:sodipodi="http://sodipodi.sourceforge.net/DTD/sodipodi-0.dtd"
   xmlns:inkscape="http://www.inkscape.org/namespaces/inkscape"
   width="256"
   height="256"
   viewBox="0 0 67.733332 67.733335"
   version="1.1"
   id="svg8"
   inkscape:version="0.92.1 r15371"
   sodipodi:docname="saveicon.svg">
  <defs
     id="defs2" />
  <sodipodi:namedview
     id="base"
     pagecolor="#ffffff"
     bordercolor="#666666"
     borderopacity="1.0"
     inkscape:pageopacity="0.0"
     inkscape:pageshadow="2"
     inkscape:zoom="1.979899"
     inkscape:cx="98.346133"
     inkscape:cy="103.33745"
     inkscape:document-units="mm"
     inkscape:current-layer="layer1"
     showgrid="false"
     units="px"
     inkscape:window-width="1920"
     inkscape:window-height="1019"
     inkscape:window-x="-9"
     inkscape:window-y="-9"
     inkscape:window-maximized="1" />
  <metadata
     id="metadata5">
    <rdf:RDF>
      <cc:Work
         rdf:about="">
        <dc:format>image/svg+xml</dc:format>
        <dc:type
           rdf:resource="http://purl.org/dc/dcmitype/StillImage" />
        <dc:title></dc:title>
      </cc:Work>
    </rdf:RDF>
  </metadata>
  <g
     inkscape:label="Layer 1"
     inkscape:groupmode="layer"
     id="layer1"
     transform="translate(0,-229.26665)">
    <path
       style="opacity:1;vector-effect:none;fill:#445566;fill-opacity:1;stroke:none;stroke-width:7.99999952;stroke-linecap:butt;stroke-linejoin:miter;stroke-miterlimit:4;stroke-dasharray:none;stroke-dashoffset:0;stroke-opacity:1"
       d="M 7.1367188 0 C 3.1825224 0 0 3.1825224 0 7.1367188 L 0 248.86328 C 5.9211895e-016 252.81748 3.1825224 256 7.1367188 256 L 248.86328 256 C 252.81748 256 256 252.81748 256 248.86328 L 256 60 L 196 0 L 7.1367188 0 z "
       transform="matrix(0.26458333,0,0,0.26458333,0,229.26665)"
       id="rect4487" />
    <circle
       style="fill:#f9f9f9;fill-opacity:1;stroke:none;stroke-width:2.11666656;stroke-miterlimit:4;stroke-dasharray:none;stroke-dashoffset:0;stroke-opacity:1"
       id="path4495"
       cx="15.875001"
       cy="243.81873"
       r="6.6145835" />
    <path
       style="opacity:1;vector-effect:none;fill:#ffffff;fill-opacity:1;stroke:none;stroke-width:7.99999952;stroke-linecap:butt;stroke-linejoin:miter;stroke-miterlimit:4;stroke-dasharray:none;stroke-dashoffset:0;stroke-opacity:1"
       d="M 47.246094 116 C 43.231268 116 40 119.23127 40 123.24609 L 40 131.23438 L 216 131.23438 L 216 123.24609 C 216 119.23127 212.76873 116 208.75391 116 L 47.246094 116 z M 40 142.66406 L 40 208.75391 C 40 212.76873 43.231268 216 47.246094 216 L 208.75391 216 C 212.76873 216 216 212.76873 216 208.75391 L 216 142.66406 L 40 142.66406 z "
       transform="matrix(0.26458333,0,0,0.26458333,0,229.26665)"
       id="rect4538" />
  </g>
</svg>
